<?xml version="1.0" encoding="UTF-8"?>
<svg id="logo_vector" data-name="logo vector" xmlns="http://www.w3.org/2000/svg" width="1476" height="1476" viewBox="0 0 1476 1476">
  <defs>
    <style>
      .cls-1 {
        fill: #e6e6e6;
        stroke: #000;
        stroke-miterlimit: 10;
        stroke-width: 10px;
      }
    </style>
  </defs>
  <path class="cls-1" d="M370.87,126h311.25v86.77h-104.67v406.28c.89,13.91,4.36,38.59,19.28,64.73,10.32,18.09,22.57,30.64,31.68,38.56-11.48,31.68-22.95,63.35-34.43,95.03-18.7-10.69-54.42-34.44-82.63-78.5-25.6-39.97-33.19-78.17-35.81-99.16V211.39h-104.67V126Z"/>
  <path class="cls-1" d="M1142.12,126h-311.25s0,86.77,0,86.77h104.67v406.28c-.89,13.91-4.36,38.59-19.28,64.73-10.32,18.09-22.57,30.64-31.68,38.56,11.48,31.68,22.95,63.35,34.43,95.03,18.7-10.69,54.42-34.44,82.63-78.5,25.6-39.97,33.19-78.17,35.81-99.16,0-142.77,0-285.54,0-428.32h104.67s0-85.39,0-85.39Z"/>
  <path class="cls-1" d="M666.98,674.14h-30.3v-79.88h243.77v79.88h-27.54l85.39,214.85c-12.07-4.68-30.59-10.22-53.71-11.02-19.99-.69-36.59,2.4-48.2,5.51-26.17-64.27-52.33-128.54-78.5-192.81l-88.14,223.11-57.84-17.9c-14.23,9.18-28.46,18.36-42.69,27.54,32.59-83.09,65.19-166.19,97.78-249.28Z"/>
  <polygon class="cls-1" points="748.23 762.28 766.14 762.28 801.95 854.55 712.43 854.55 748.23 762.28"/>
  <line class="cls-1" x1="547.16" y1="1227.78" x2="440.13" y2="1228.54"/>
  <polygon class="cls-1" points="547.16 1227.78 655.96 1227.78 655.96 1309.04 354.35 1309.04 354.35 1229.16 440.13 1228.54 501.71 1087.3 600.87 1095.57 547.16 1227.78"/>
  <polyline class="cls-1" points="1077.89 1227.78 1055.36 1227.78 970.11 1228.39"/>
  <path class="cls-1" d="M1077.89,1227.78h86.26v81.26h-301.61v-79.88l107.57-.77-97.92-243c13.86-5.99,30.65-14.73,48.2-27.54,13.47-9.83,24.39-19.88,33.05-28.92,41.48,99.62,82.97,199.24,124.45,298.86Z"/>
  <path class="cls-1" d="M514.11,1069.4c26.52,4.06,55.04,7.43,85.39,9.64,22.06,1.61,43.21,2.47,63.35,2.75,14.69-16.53,29.38-33.05,44.07-49.58-22.7,8.55-48.96,16.83-78.5,23.41-43.11,9.6-82,13.1-114.31,13.77Z"/>
  <path class="cls-1" d="M494.91,1002.1c20.17-17.68,42.42-35.85,66.82-54.03,17.73-13.21,35.11-25.31,51.94-36.38,21.27,6.04,42.54,12.08,63.81,18.12-23.74,4.99-50.33,12.13-78.78,22.46-41.52,15.08-76.18,33.03-103.79,49.83Z"/>
  <polygon class="cls-1" points="592.61 979.88 587.1 989.52 599.49 1033.59 609.13 1037.72 592.61 979.88"/>
  <polygon class="cls-1" points="596.74 972.99 616.02 1037.72 624.28 1040.48 602.25 966.11 596.74 972.99"/>
  <path class="cls-1" d="M898.35,893.11c-29.74-2.88-55.26-.53-74.37,2.75-71.39,19.75-142.78,39.51-214.17,59.27-1.6,.44-3.2,.89-4.8,1.33,8.72,30.3,17.44,60.6,26.17,90.9,74.37-22.04,148.74-44.07,223.11-66.11,18.17-7.06,43.86-19.75,68.86-42.69,12.93-11.86,22.82-23.86,30.3-34.43-14.98-4.6-33.55-8.93-55.09-11.02Zm-174.91,99.16c-10.65,0-19.28-8.63-19.28-19.28s8.63-19.28,19.28-19.28,19.28,8.63,19.28,19.28-8.63,19.28-19.28,19.28Zm59.22-16.53c-10.65,0-19.28-8.63-19.28-19.28s8.63-19.28,19.28-19.28,19.28,8.63,19.28,19.28-8.63,19.28-19.28,19.28Zm60.6-17.9c-10.65,0-19.28-8.63-19.28-19.28s8.63-19.28,19.28-19.28,19.28,8.63,19.28,19.28-8.63,19.28-19.28,19.28Z"/>
  <path class="cls-1" d="M578.84,1011.56c-56.68,7.31-174.19,20.12-180.42-2.75-6.76-24.83,120.83-79.8,170.78-100.54,2.75-6.43,5.51-12.85,8.26-19.28-187.39,79.61-246.26,119.54-241.01,137.72,4.96,17.18,68.72,20.26,245.15-6.89-.92-2.75-1.84-5.51-2.75-8.26Z"/>
  <path class="cls-1" d="M978.23,774.67l-17.9,22.04c56.89-8.59,145.64-19.08,151.49,0,6.58,21.43-94.37,70.47-144.61,93.65,2.3,5.05,4.59,10.1,6.89,15.15,139.39-64.58,205.95-107.28,199.7-128.08-5.65-18.81-70.85-19.73-195.57-2.75Z"/>
</svg>